<mxfile host="app.diagrams.net" modified="2023-04-01T20:14:08.242Z" agent="Mozilla/5.0 (Macintosh; Intel Mac OS X 10_15_7) AppleWebKit/537.36 (KHTML, like Gecko) Chrome/111.0.0.0 Safari/537.36" etag="ktf3W4HtlRHd5ISbGLaJ" version="21.1.2" type="github">
  <diagram name="第 1 页" id="WdboCnZ2d4t4Ayvz6EiU">
    <mxGraphModel dx="2069" dy="739" grid="1" gridSize="10" guides="1" tooltips="1" connect="1" arrows="1" fold="1" page="1" pageScale="1" pageWidth="827" pageHeight="1169" math="0" shadow="0">
      <root>
        <mxCell id="0" />
        <mxCell id="1" parent="0" />
        <mxCell id="ZECSGGWycOFUHyePITKy-1" value="" style="group" vertex="1" connectable="0" parent="1">
          <mxGeometry x="140" y="400" width="120" height="120" as="geometry" />
        </mxCell>
        <mxCell id="ZECSGGWycOFUHyePITKy-2" value="" style="rounded=1;whiteSpace=wrap;html=1;fillColor=#1ba1e2;fontColor=#ffffff;strokeColor=#006EAF;" vertex="1" parent="ZECSGGWycOFUHyePITKy-1">
          <mxGeometry width="120" height="120" as="geometry" />
        </mxCell>
        <mxCell id="ZECSGGWycOFUHyePITKy-3" value="&lt;span style=&quot;font-size: 15px;&quot;&gt;大粉up缓存&lt;/span&gt;" style="shape=process;whiteSpace=wrap;html=1;backgroundOutline=1;strokeWidth=2;fillColor=#d80073;fontColor=#ffffff;strokeColor=#A50040;" vertex="1" parent="ZECSGGWycOFUHyePITKy-1">
          <mxGeometry x="7.5" y="50" width="105" height="60" as="geometry" />
        </mxCell>
        <mxCell id="ZECSGGWycOFUHyePITKy-4" value="&lt;font color=&quot;#ffffff&quot; style=&quot;font-size: 15px;&quot;&gt;outbox-1&lt;/font&gt;" style="text;strokeColor=none;align=center;fillColor=none;html=1;verticalAlign=middle;whiteSpace=wrap;rounded=0;" vertex="1" parent="ZECSGGWycOFUHyePITKy-1">
          <mxGeometry x="25" y="10" width="70" height="30" as="geometry" />
        </mxCell>
        <mxCell id="ZECSGGWycOFUHyePITKy-5" value="" style="group" vertex="1" connectable="0" parent="1">
          <mxGeometry x="294" y="400" width="120" height="120" as="geometry" />
        </mxCell>
        <mxCell id="ZECSGGWycOFUHyePITKy-6" value="" style="rounded=1;whiteSpace=wrap;html=1;fillColor=#1ba1e2;fontColor=#ffffff;strokeColor=#006EAF;" vertex="1" parent="ZECSGGWycOFUHyePITKy-5">
          <mxGeometry width="120" height="120" as="geometry" />
        </mxCell>
        <mxCell id="ZECSGGWycOFUHyePITKy-7" value="&lt;span style=&quot;font-size: 15px;&quot;&gt;大粉up缓存&lt;/span&gt;" style="shape=process;whiteSpace=wrap;html=1;backgroundOutline=1;strokeWidth=2;fillColor=#d80073;fontColor=#ffffff;strokeColor=#A50040;" vertex="1" parent="ZECSGGWycOFUHyePITKy-5">
          <mxGeometry x="7.5" y="50" width="105" height="60" as="geometry" />
        </mxCell>
        <mxCell id="ZECSGGWycOFUHyePITKy-8" value="&lt;font color=&quot;#ffffff&quot; style=&quot;font-size: 15px;&quot;&gt;outbox-2&lt;/font&gt;" style="text;strokeColor=none;align=center;fillColor=none;html=1;verticalAlign=middle;whiteSpace=wrap;rounded=0;" vertex="1" parent="ZECSGGWycOFUHyePITKy-5">
          <mxGeometry x="25" y="10" width="70" height="30" as="geometry" />
        </mxCell>
        <mxCell id="ZECSGGWycOFUHyePITKy-9" value="" style="group" vertex="1" connectable="0" parent="1">
          <mxGeometry x="480" y="400" width="120" height="120" as="geometry" />
        </mxCell>
        <mxCell id="ZECSGGWycOFUHyePITKy-10" value="" style="rounded=1;whiteSpace=wrap;html=1;fillColor=#1ba1e2;fontColor=#ffffff;strokeColor=#006EAF;" vertex="1" parent="ZECSGGWycOFUHyePITKy-9">
          <mxGeometry width="120" height="120" as="geometry" />
        </mxCell>
        <mxCell id="ZECSGGWycOFUHyePITKy-11" value="&lt;span style=&quot;font-size: 15px;&quot;&gt;大粉up缓存&lt;/span&gt;" style="shape=process;whiteSpace=wrap;html=1;backgroundOutline=1;strokeWidth=2;fillColor=#d80073;fontColor=#ffffff;strokeColor=#A50040;" vertex="1" parent="ZECSGGWycOFUHyePITKy-9">
          <mxGeometry x="7.5" y="50" width="105" height="60" as="geometry" />
        </mxCell>
        <mxCell id="ZECSGGWycOFUHyePITKy-12" value="&lt;font color=&quot;#ffffff&quot; style=&quot;font-size: 15px;&quot;&gt;outbox-n&lt;/font&gt;" style="text;strokeColor=none;align=center;fillColor=none;html=1;verticalAlign=middle;whiteSpace=wrap;rounded=0;" vertex="1" parent="ZECSGGWycOFUHyePITKy-9">
          <mxGeometry x="25" y="10" width="70" height="30" as="geometry" />
        </mxCell>
        <mxCell id="ZECSGGWycOFUHyePITKy-13" value="" style="group" vertex="1" connectable="0" parent="1">
          <mxGeometry x="690" y="90" width="280" height="310" as="geometry" />
        </mxCell>
        <mxCell id="ZECSGGWycOFUHyePITKy-14" value="" style="rounded=0;whiteSpace=wrap;html=1;dashed=1;fillColor=#e1d5e7;strokeColor=#9673a6;" vertex="1" parent="ZECSGGWycOFUHyePITKy-13">
          <mxGeometry x="10" y="30" width="270" height="280" as="geometry" />
        </mxCell>
        <mxCell id="ZECSGGWycOFUHyePITKy-15" value="&lt;font color=&quot;#ffffff&quot; style=&quot;font-size: 15px;&quot;&gt;outbox-feed redis集群&lt;/font&gt;" style="ellipse;shape=cloud;whiteSpace=wrap;html=1;strokeWidth=2;fillColor=#e3c800;strokeColor=#B09500;fontColor=#000000;" vertex="1" parent="ZECSGGWycOFUHyePITKy-13">
          <mxGeometry y="110" width="220" height="100" as="geometry" />
        </mxCell>
        <mxCell id="ZECSGGWycOFUHyePITKy-16" value="mysql" style="shape=cylinder3;whiteSpace=wrap;html=1;boundedLbl=1;backgroundOutline=1;size=15;strokeWidth=2;fillColor=#a20025;fontColor=#ffffff;strokeColor=#6F0000;" vertex="1" parent="ZECSGGWycOFUHyePITKy-13">
          <mxGeometry x="220" y="40" width="50" height="70" as="geometry" />
        </mxCell>
        <mxCell id="ZECSGGWycOFUHyePITKy-17" value="mysql" style="shape=cylinder3;whiteSpace=wrap;html=1;boundedLbl=1;backgroundOutline=1;size=15;strokeWidth=2;fillColor=#a20025;fontColor=#ffffff;strokeColor=#6F0000;" vertex="1" parent="ZECSGGWycOFUHyePITKy-13">
          <mxGeometry x="220" y="130" width="50" height="70" as="geometry" />
        </mxCell>
        <mxCell id="ZECSGGWycOFUHyePITKy-18" value="&lt;font style=&quot;font-size: 15px;&quot;&gt;...&lt;/font&gt;" style="text;strokeColor=none;align=center;fillColor=none;html=1;verticalAlign=middle;whiteSpace=wrap;rounded=0;rotation=-90;" vertex="1" parent="ZECSGGWycOFUHyePITKy-13">
          <mxGeometry x="207" y="200" width="63" height="30" as="geometry" />
        </mxCell>
        <mxCell id="ZECSGGWycOFUHyePITKy-19" value="mysql" style="shape=cylinder3;whiteSpace=wrap;html=1;boundedLbl=1;backgroundOutline=1;size=15;strokeWidth=2;fillColor=#a20025;fontColor=#ffffff;strokeColor=#6F0000;" vertex="1" parent="ZECSGGWycOFUHyePITKy-13">
          <mxGeometry x="220" y="230" width="50" height="70" as="geometry" />
        </mxCell>
        <mxCell id="ZECSGGWycOFUHyePITKy-20" value="&lt;font style=&quot;font-size: 13px;&quot;&gt;outbox存储&lt;/font&gt;" style="text;strokeColor=none;align=center;fillColor=none;html=1;verticalAlign=middle;whiteSpace=wrap;rounded=0;" vertex="1" parent="ZECSGGWycOFUHyePITKy-13">
          <mxGeometry x="105" width="80" height="30" as="geometry" />
        </mxCell>
        <mxCell id="ZECSGGWycOFUHyePITKy-25" value="&lt;font style=&quot;font-size: 13px;&quot;&gt;拉取up-a的最新200条动态重构本地缓存&lt;/font&gt;" style="text;strokeColor=none;align=center;fillColor=none;html=1;verticalAlign=middle;whiteSpace=wrap;rounded=0;" vertex="1" parent="1">
          <mxGeometry x="340" y="575" width="250" height="20" as="geometry" />
        </mxCell>
        <mxCell id="ZECSGGWycOFUHyePITKy-42" style="edgeStyle=orthogonalEdgeStyle;rounded=0;orthogonalLoop=1;jettySize=auto;html=1;strokeWidth=2;" edge="1" parent="1" source="ZECSGGWycOFUHyePITKy-26" target="ZECSGGWycOFUHyePITKy-14">
          <mxGeometry relative="1" as="geometry" />
        </mxCell>
        <mxCell id="ZECSGGWycOFUHyePITKy-26" value="&lt;span style=&quot;font-size: 15px;&quot;&gt;up变更动态一致性检测&lt;/span&gt;" style="rounded=1;whiteSpace=wrap;html=1;fillColor=#1ba1e2;fontColor=#ffffff;strokeColor=#006EAF;" vertex="1" parent="1">
          <mxGeometry x="313.5" y="60" width="159" height="60" as="geometry" />
        </mxCell>
        <mxCell id="ZECSGGWycOFUHyePITKy-48" style="edgeStyle=orthogonalEdgeStyle;rounded=0;orthogonalLoop=1;jettySize=auto;html=1;strokeWidth=2;" edge="1" parent="1" source="ZECSGGWycOFUHyePITKy-27">
          <mxGeometry relative="1" as="geometry">
            <mxPoint x="700" y="260" as="targetPoint" />
            <Array as="points">
              <mxPoint x="520" y="260" />
              <mxPoint x="520" y="260" />
            </Array>
          </mxGeometry>
        </mxCell>
        <mxCell id="ZECSGGWycOFUHyePITKy-52" style="edgeStyle=none;rounded=0;orthogonalLoop=1;jettySize=auto;html=1;entryX=0.914;entryY=0.526;entryDx=0;entryDy=0;entryPerimeter=0;strokeWidth=2;" edge="1" parent="1" source="ZECSGGWycOFUHyePITKy-27" target="ZECSGGWycOFUHyePITKy-33">
          <mxGeometry relative="1" as="geometry" />
        </mxCell>
        <mxCell id="ZECSGGWycOFUHyePITKy-54" style="edgeStyle=none;rounded=0;orthogonalLoop=1;jettySize=auto;html=1;entryX=0.5;entryY=0;entryDx=0;entryDy=0;strokeWidth=2;" edge="1" parent="1" target="ZECSGGWycOFUHyePITKy-2">
          <mxGeometry relative="1" as="geometry">
            <mxPoint x="390" y="290" as="sourcePoint" />
          </mxGeometry>
        </mxCell>
        <mxCell id="ZECSGGWycOFUHyePITKy-55" style="edgeStyle=none;rounded=0;orthogonalLoop=1;jettySize=auto;html=1;exitX=0.5;exitY=1;exitDx=0;exitDy=0;entryX=0.5;entryY=0;entryDx=0;entryDy=0;strokeWidth=2;" edge="1" parent="1" source="ZECSGGWycOFUHyePITKy-27" target="ZECSGGWycOFUHyePITKy-6">
          <mxGeometry relative="1" as="geometry" />
        </mxCell>
        <mxCell id="ZECSGGWycOFUHyePITKy-56" style="edgeStyle=none;rounded=0;orthogonalLoop=1;jettySize=auto;html=1;exitX=0.5;exitY=1;exitDx=0;exitDy=0;entryX=0.5;entryY=0;entryDx=0;entryDy=0;strokeWidth=2;" edge="1" parent="1" source="ZECSGGWycOFUHyePITKy-27" target="ZECSGGWycOFUHyePITKy-10">
          <mxGeometry relative="1" as="geometry" />
        </mxCell>
        <mxCell id="ZECSGGWycOFUHyePITKy-27" value="&lt;span style=&quot;font-size: 15px;&quot;&gt;定期一致性巡检&lt;/span&gt;" style="rounded=1;whiteSpace=wrap;html=1;fillColor=#1ba1e2;fontColor=#ffffff;strokeColor=#006EAF;" vertex="1" parent="1">
          <mxGeometry x="310" y="230" width="166" height="60" as="geometry" />
        </mxCell>
        <mxCell id="ZECSGGWycOFUHyePITKy-33" value="" style="ellipse;shape=cloud;whiteSpace=wrap;html=1;strokeWidth=2;fillColor=#e3c800;fontColor=#000000;strokeColor=#B09500;" vertex="1" parent="1">
          <mxGeometry x="-160" y="160" width="350" height="190" as="geometry" />
        </mxCell>
        <mxCell id="ZECSGGWycOFUHyePITKy-34" value="&lt;font style=&quot;font-size: 15px;&quot;&gt;checksum:&amp;lt;up-a&amp;gt;&lt;br&gt;1 ck1&lt;br&gt;2 ck2&lt;br&gt;n ckn&lt;/font&gt;" style="ellipse;whiteSpace=wrap;html=1;fillColor=#60a917;fontColor=#ffffff;strokeColor=#2D7600;" vertex="1" parent="1">
          <mxGeometry x="-20" y="210" width="160" height="100" as="geometry" />
        </mxCell>
        <mxCell id="ZECSGGWycOFUHyePITKy-35" value="&lt;font color=&quot;#ffffff&quot; style=&quot;font-size: 15px;&quot;&gt;大粉up redis集群&lt;/font&gt;" style="text;strokeColor=none;align=center;fillColor=none;html=1;verticalAlign=middle;whiteSpace=wrap;rounded=0;" vertex="1" parent="1">
          <mxGeometry x="-150" y="227.5" width="150" height="35" as="geometry" />
        </mxCell>
        <mxCell id="ZECSGGWycOFUHyePITKy-39" style="edgeStyle=orthogonalEdgeStyle;rounded=0;orthogonalLoop=1;jettySize=auto;html=1;exitX=0;exitY=0.5;exitDx=0;exitDy=0;strokeWidth=2;" edge="1" parent="1" source="ZECSGGWycOFUHyePITKy-2" target="ZECSGGWycOFUHyePITKy-34">
          <mxGeometry relative="1" as="geometry" />
        </mxCell>
        <mxCell id="ZECSGGWycOFUHyePITKy-43" style="edgeStyle=orthogonalEdgeStyle;rounded=0;orthogonalLoop=1;jettySize=auto;html=1;exitX=0;exitY=0.5;exitDx=0;exitDy=0;entryX=0.5;entryY=0;entryDx=0;entryDy=0;strokeWidth=2;" edge="1" parent="1" source="ZECSGGWycOFUHyePITKy-26" target="ZECSGGWycOFUHyePITKy-34">
          <mxGeometry relative="1" as="geometry" />
        </mxCell>
        <mxCell id="ZECSGGWycOFUHyePITKy-44" value="&lt;font style=&quot;font-size: 13px;&quot;&gt;拉取up-a的最新200条动态&lt;/font&gt;" style="text;strokeColor=none;align=center;fillColor=none;html=1;verticalAlign=middle;whiteSpace=wrap;rounded=0;" vertex="1" parent="1">
          <mxGeometry x="430" y="70" width="250" height="20" as="geometry" />
        </mxCell>
        <mxCell id="ZECSGGWycOFUHyePITKy-45" value="&lt;font style=&quot;font-size: 13px;&quot;&gt;拉取所有outbox实例上报的up-a的checksum&lt;/font&gt;" style="text;strokeColor=none;align=center;fillColor=none;html=1;verticalAlign=middle;whiteSpace=wrap;rounded=0;" vertex="1" parent="1">
          <mxGeometry x="49" y="70" width="264.5" height="20" as="geometry" />
        </mxCell>
        <mxCell id="ZECSGGWycOFUHyePITKy-53" value="&lt;span style=&quot;font-size: 13px;&quot;&gt;拉取大粉up名单&lt;/span&gt;" style="text;strokeColor=none;align=center;fillColor=none;html=1;verticalAlign=middle;whiteSpace=wrap;rounded=0;strokeWidth=2;" vertex="1" parent="1">
          <mxGeometry x="110" y="262.5" width="264.5" height="20" as="geometry" />
        </mxCell>
        <mxCell id="ZECSGGWycOFUHyePITKy-58" value="&lt;span style=&quot;font-size: 13px;&quot;&gt;获取大粉up在本地缓存200条动态&lt;/span&gt;" style="text;strokeColor=none;align=center;fillColor=none;html=1;verticalAlign=middle;whiteSpace=wrap;rounded=0;strokeWidth=2;" vertex="1" parent="1">
          <mxGeometry x="45.5" y="340" width="264.5" height="20" as="geometry" />
        </mxCell>
        <mxCell id="ZECSGGWycOFUHyePITKy-59" value="&lt;span style=&quot;font-size: 13px;&quot;&gt;获取大粉up在redis中的200条动态&lt;/span&gt;" style="text;strokeColor=none;align=center;fillColor=none;html=1;verticalAlign=middle;whiteSpace=wrap;rounded=0;strokeWidth=2;" vertex="1" parent="1">
          <mxGeometry x="450" y="262.5" width="264.5" height="20" as="geometry" />
        </mxCell>
        <mxCell id="ZECSGGWycOFUHyePITKy-61" style="edgeStyle=orthogonalEdgeStyle;rounded=0;orthogonalLoop=1;jettySize=auto;html=1;entryX=0.25;entryY=1;entryDx=0;entryDy=0;strokeWidth=2;" edge="1" parent="1" source="ZECSGGWycOFUHyePITKy-2" target="ZECSGGWycOFUHyePITKy-14">
          <mxGeometry relative="1" as="geometry">
            <Array as="points">
              <mxPoint x="200" y="570" />
              <mxPoint x="768" y="570" />
            </Array>
          </mxGeometry>
        </mxCell>
        <mxCell id="ZECSGGWycOFUHyePITKy-62" style="edgeStyle=orthogonalEdgeStyle;rounded=0;orthogonalLoop=1;jettySize=auto;html=1;entryX=0.25;entryY=1;entryDx=0;entryDy=0;strokeWidth=2;" edge="1" parent="1" source="ZECSGGWycOFUHyePITKy-6" target="ZECSGGWycOFUHyePITKy-14">
          <mxGeometry relative="1" as="geometry">
            <Array as="points">
              <mxPoint x="354" y="570" />
              <mxPoint x="768" y="570" />
            </Array>
          </mxGeometry>
        </mxCell>
        <mxCell id="ZECSGGWycOFUHyePITKy-63" style="edgeStyle=orthogonalEdgeStyle;rounded=0;orthogonalLoop=1;jettySize=auto;html=1;entryX=0.25;entryY=1;entryDx=0;entryDy=0;strokeWidth=2;" edge="1" parent="1" source="ZECSGGWycOFUHyePITKy-10" target="ZECSGGWycOFUHyePITKy-14">
          <mxGeometry relative="1" as="geometry">
            <Array as="points">
              <mxPoint x="540" y="570" />
              <mxPoint x="768" y="570" />
            </Array>
          </mxGeometry>
        </mxCell>
        <mxCell id="ZECSGGWycOFUHyePITKy-65" style="edgeStyle=orthogonalEdgeStyle;rounded=0;orthogonalLoop=1;jettySize=auto;html=1;exitX=0;exitY=0.5;exitDx=0;exitDy=0;entryX=0.5;entryY=1;entryDx=0;entryDy=0;strokeWidth=2;" edge="1" parent="1" source="ZECSGGWycOFUHyePITKy-6" target="ZECSGGWycOFUHyePITKy-34">
          <mxGeometry relative="1" as="geometry">
            <Array as="points">
              <mxPoint x="270" y="460" />
              <mxPoint x="270" y="370" />
              <mxPoint x="60" y="370" />
            </Array>
          </mxGeometry>
        </mxCell>
        <mxCell id="ZECSGGWycOFUHyePITKy-66" style="edgeStyle=orthogonalEdgeStyle;rounded=0;orthogonalLoop=1;jettySize=auto;html=1;entryX=0.5;entryY=1;entryDx=0;entryDy=0;strokeWidth=2;" edge="1" parent="1" source="ZECSGGWycOFUHyePITKy-10" target="ZECSGGWycOFUHyePITKy-34">
          <mxGeometry relative="1" as="geometry">
            <Array as="points">
              <mxPoint x="450" y="460" />
              <mxPoint x="450" y="370" />
              <mxPoint x="60" y="370" />
            </Array>
          </mxGeometry>
        </mxCell>
        <mxCell id="ZECSGGWycOFUHyePITKy-67" value="&lt;span style=&quot;font-size: 13px;&quot;&gt;上报up-a的checksum&lt;/span&gt;" style="text;strokeColor=none;align=center;fillColor=none;html=1;verticalAlign=middle;whiteSpace=wrap;rounded=0;strokeWidth=2;" vertex="1" parent="1">
          <mxGeometry x="-10" y="380" width="264.5" height="20" as="geometry" />
        </mxCell>
      </root>
    </mxGraphModel>
  </diagram>
</mxfile>
